# Blender v2.79 (sub 0) OBJ File: ''
# www.blender.org
o Cube
v 1.000000 -1.000000 -1.000000
v 1.000000 -1.000000 1.000000
v -1.000000 -1.000000 1.000000
v -1.000000 -1.000000 -1.000000
v 1.000000 1.000000 -0.999999
v 0.999999 1.000000 1.000001
v -1.000000 1.000000 1.000000
v -1.000000 1.000000 -1.000000
v 1.000000 3.960979 -0.999999
v 0.999999 3.960979 1.000001
v -1.000000 3.960979 -1.000000
v -1.000000 3.960979 1.000000
v 0.999999 1.000000 1.000001
v -1.000000 1.000000 1.000000
v 0.999999 3.960979 1.000001
v -1.000000 3.960979 1.000000
v 0.999998 1.000000 3.792919
v -1.000002 1.000000 3.792918
v 0.999998 3.960979 3.792919
v -1.000002 3.960979 3.792918
v 4.915672 1.000000 1.000003
v 4.915672 3.960979 1.000003
v 4.915670 1.000000 3.792921
v 4.915670 3.960979 3.792921
vt 0.000200 0.666467
vt 0.333134 0.333533
vt 0.333134 0.666467
vt 0.333533 0.666467
vt 0.666467 0.666467
vt 0.333533 0.666467
vt 0.666467 0.333133
vt 0.333533 0.000200
vt 0.666467 0.000200
vt 0.666467 0.666467
vt 0.333533 0.333533
vt 0.666467 0.333533
vt 0.666867 0.333134
vt 0.999800 0.000200
vt 0.999800 0.333134
vt 0.333134 0.999800
vt 0.000200 0.666867
vt 0.333134 0.666866
vt 0.000200 0.333134
vt 0.333133 0.000200
vt 0.333134 0.333133
vt 0.333533 0.333134
vt 0.333533 0.333134
vt 0.666867 0.000200
vt 0.999800 0.000200
vt 0.333134 0.666866
vt 0.666867 0.000200
vt 0.666867 0.000200
vt 0.666867 0.000200
vt 0.666867 0.000200
vt 0.333533 0.333134
vt 0.333533 0.333134
vt 0.000200 0.000200
vt 0.333133 0.000200
vt 0.666467 0.666467
vt 0.333533 0.666467
vt 0.333533 0.666467
vt 0.000200 0.000200
vt 0.333133 0.000200
vt 0.333133 0.000200
vt 0.333533 0.333134
vt 0.333533 0.333134
vt 0.333533 0.333134
vt 0.666467 0.666467
vt 0.666467 0.666467
vt 0.666467 0.666467
vt 0.000200 0.333533
vt 0.000200 0.999800
vt 0.000200 0.000200
vt 0.666467 0.333133
vt 0.000200 0.666867
vt 0.666867 0.000200
vt 0.333133 0.000200
vt 0.333533 0.333134
vt 0.666467 0.666467
vn 0.0000 -1.0000 0.0000
vn 0.0000 0.0000 1.0000
vn 1.0000 -0.0000 0.0000
vn -1.0000 -0.0000 -0.0000
vn 0.0000 0.0000 -1.0000
vn 0.0000 1.0000 0.0000
s off
f 2/1/1 4/2/1 1/3/1
f 7/4/2 13/5/2 14/6/2
f 5/7/3 2/8/3 1/9/3
f 6/10/2 3/11/2 2/12/2
f 3/13/4 8/14/4 4/15/4
f 1/16/5 8/17/5 5/18/5
f 11/19/6 10/20/6 9/21/6
f 5/7/3 10/22/3 6/23/3
f 7/24/4 11/25/4 8/14/4
f 8/17/5 9/26/5 5/18/5
f 14/27/4 20/28/4 16/29/4
f 12/30/2 14/27/2 16/29/2
f 6/23/2 15/31/2 13/32/2
f 10/20/2 16/33/2 15/34/2
f 17/35/2 20/36/2 18/37/2
f 15/34/6 20/38/6 19/39/6
f 19/39/6 22/40/6 15/34/6
f 14/6/1 17/35/1 18/37/1
f 22/41/3 23/42/3 21/43/3
f 17/35/2 24/44/2 19/45/2
f 13/5/1 23/46/1 17/35/1
f 15/31/5 21/43/5 13/32/5
f 2/1/1 3/47/1 4/2/1
f 7/4/2 6/10/2 13/5/2
f 5/7/3 6/23/3 2/8/3
f 6/10/2 7/4/2 3/11/2
f 3/13/4 7/24/4 8/14/4
f 1/16/5 4/48/5 8/17/5
f 11/19/6 12/49/6 10/20/6
f 5/7/3 9/50/3 10/22/3
f 7/24/4 12/30/4 11/25/4
f 8/17/5 11/51/5 9/26/5
f 14/27/4 18/52/4 20/28/4
f 12/30/2 7/24/2 14/27/2
f 6/23/2 10/22/2 15/31/2
f 10/20/2 12/49/2 16/33/2
f 17/35/2 19/45/2 20/36/2
f 15/34/6 16/33/6 20/38/6
f 19/39/6 24/53/6 22/40/6
f 14/6/1 13/5/1 17/35/1
f 22/41/3 24/54/3 23/42/3
f 17/35/2 23/46/2 24/44/2
f 13/5/1 21/55/1 23/46/1
f 15/31/5 22/41/5 21/43/5
